# AST/ASF file generated using VICON BodyLanguage
# -----------------------------------------------
:version 1.10
:name VICON
:units
  mass 1.0
  length 0.45
  angle deg
:documentation
   .ast/.asf automatically generated from VICON data using
   VICON BodyBuilder and BodyLanguage model FoxedUp or BRILLIANT.MOD
:root
   order TX TY TZ RX RY RZ
   axis XYZ
   position 0 0 0  
   orientation 0 0 0 
:bonedata
  begin
     id 1 
     name lhipjoint
     direction 0.623529 -0.717805 0.309788 
     length 2.23224 
     axis 0 0 0  XYZ
  end
  begin
     id 2 
     name lfemur
     direction 0.34202 -0.939693 0  
     length 7.11402  
     axis 0 0 20  XYZ
    dof rx ry rz
    limits (-160.0 20.0)
           (-70.0 70.0)
           (-60.0 70.0)
  end
  begin
     id 3 
     name ltibia
     direction 0.34202 -0.939693 0   
     length 6.78496   
     axis 0 0 20   XYZ
    dof rx
    limits (-10.0 170.0)
  end
  begin
     id 4 
     name lfoot
     direction 0.125078 -0.343648 0.930732   
     length 1.84054   
     axis -90 7.62852e-016 20   XYZ
    dof rx rz
    limits (-45.0 90.0)
           (-70.0 20.0)
  end
  begin
     id 5 
     name ltoes
     direction 1.53565e-011 -4.21893e-011 1   
     length 0.916474   
     axis -90 7.62852e-016 20   XYZ
    dof rx
    limits (-90.0 20.0)
  end
  begin
     id 6 
     name rhipjoint
     direction -0.564688 -0.757748 0.327026   
     length 2.11457  
     axis 0 0 0  XYZ 
  end
  begin
     id 7 
     name rfemur
     direction -0.34202 -0.939693 0   
     length 7.14609   
     axis 0 0 -20   XYZ
    dof rx ry rz
    limits (-160.0 20.0)
           (-70.0 70.0)
           (-70.0 60.0)
  end
  begin
     id 8 
     name rtibia
     direction -0.34202 -0.939693 0   
     length 6.78101   
     axis 0 0 -20   XYZ
    dof rx
    limits (-10.0 170.0)
 end
 begin
     id 9 
     name rfoot
     direction -0.0992671 -0.272734 0.956955   
     length 1.96168  
     axis -90 -7.62852e-016 -20   XYZ
    dof rx rz
    limits (-45.0 90.0)
           (-20.0 70.0)
  end
  begin
     id 10 
     name rtoes
     direction -1.5356e-011 -4.21891e-011 1   
     length 0.982933   
     axis -90 -7.62852e-016 -20   XYZ
    dof rx
    limits (-90.0 20.0)
  end
  begin
     id 11 
     name lowerback
     direction -0.00596953 0.998668 0.0512524   
     length 1.87557   
     axis 0 0 0   XYZ
    dof rx ry rz
    limits (-20.0 45.0)
           (-30.0 30.0)
           (-30.0 30.0)
  end
  begin
     id 12 
     name upperback
     direction 0.00584879 0.999652 0.0257308   
     length 1.87883   
     axis 0 0 0   XYZ
    dof rx ry rz
    limits (-20.0 45.0)
           (-30.0 30.0)
           (-30.0 30.0)
  end
  begin
     id 13 
     name thorax
     direction 0.010104 0.999947 0.00178881   
     length 1.87779   
     axis 0 0 0   XYZ
    dof rx ry rz
    limits (-20.0 45.0)
           (-30.0 30.0)
           (-30.0 30.0)
  end
  begin
     id 14 
     name lowerneck
     direction 0.0120771 0.995934 -0.0892773   
     length 1.40897   
     axis 0 0 0   XYZ
    dof rx ry rz
    limits (-20.0 45.0)
           (-30.0 30.0)
           (-30.0 30.0)
  end
  begin
     id 15 
     name upperneck
     direction -0.030568 0.999465 -0.0116366   
     length 1.38661   
     axis 0 0 0   XYZ
    dof rx ry rz
    limits (-20.0 45.0)
           (-30.0 30.0)
           (-30.0 30.0)
  end
  begin
     id 16
     name head
     direction -0.0170715 0.999854 -0.00104426  
     length 1.47052  
     axis 0 0 0   XYZ
    dof rx ry rz
    limits (-20.0 45.0)
           (-30.0 30.0)
           (-30.0 30.0)
  end
  begin
     id 17 
     name lclavicle
     direction 0.977763 0.206143 0.038532  
     length 3.02424  
     axis 0 0 0   XYZ
    dof ry rz
    limits (-20.0 10.0)
           (0.0 20.0)
  end
  begin
     id 18 
     name lhumerus
     direction 1 -4.48965e-011 -2.62654e-027   
     length 4.68382   
     axis 180 -30 -90   XYZ
    dof rx ry rz
    limits (-60.0 90.0)
           (-90.0 90.0)
           (-90.0 90.0)
  end
  begin
     id 19
     name lradius
     direction 1 -4.48973e-011 -1.54954e-027   
     length 2.98124   
     axis 180 -30 -90   XYZ
    dof rx
    limits (-10.0 170.0)
  end
  begin
     id 20
     name lwrist
     direction 1 -4.48959e-011 7.20928e-028   
     length 1.49062   
     axis -5.52449e-016 90 90   XYZ
    dof ry
    limits (-180.0 0.0)
 end
  begin
     id 21 
     name lhand
     direction 1 -4.48971e-011 1.44186e-027   
     length 0.707595   
     axis -9.20027e-016 90 90   XYZ
    dof rx rz
    limits (-90.0 90.0)
           (-45.0 45.0)
  end
  begin
     id 22 
     name lfingers
     direction 1 -4.48985e-011 2.88371e-027   
     length 0.570481   
     axis -1.84005e-015 90 90   XYZ
    dof rx
    limits (0.0 90.0)
  end
  begin
     id 23
     name lthumb
     direction 0.707107 -6.34929e-011 0.707107   
     length 0.819101   
     axis -90 45 2.85299e-015   XYZ
    dof rx rz
    limits (-45.0 45.0)
           (-45.0 45.0)
  end
  begin
     id 24 
     name rclavicle
     direction -0.958661 0.284411 -0.00895327   
     length 3.11921  
     axis 0 0 0   XYZ 
    dof ry rz
    limits (-10.0 20.0)
           (-20.0 0.0)
  end
  begin
     id 25 
     name rhumerus
     direction -1 -4.48963e-011 -4.22193e-027  
     length 4.75876   
     axis 180 30 90   XYZ
    dof rx ry rz
    limits (-90.0 60.0)
           (-90.0 90.0)
           (-90.0 90.0)
  end
  begin
     id 26 
     name rradius
     direction -1 -4.48968e-011 -1.07616e-027   
     length 2.93293   
     axis 180 30 90   XYZ
    dof rx
    limits (-10.0 170.0)
  end
  begin
     id 27 
     name rwrist
     direction -1 -4.48965e-011 7.20928e-028   
     length 1.46647   
     axis -5.52449e-016 -90 -90   XYZ
    dof ry
    limits (-180.0 0.0)
  end
  begin
     id 28
     name rhand
     direction -1 -4.48971e-011 1.44186e-027   
     length 0.831748   
     axis -9.20027e-016 -90 -90   XYZ
    dof rx rz
    limits (-90.0 90.0)
           (-45.0 45.0)
  end
  begin
     id 29
     name rfingers
     direction -1 -4.48961e-011 2.88371e-027   
     length 0.670577   
     axis -1.84005e-015 -90 -90   XYZ
    dof rx
    limits (0.0 90.0)
  end
  begin
     id 30
     name rthumb
     direction -0.707107 -6.34929e-011 0.707107   
     length 0.962818   
     axis -90 -45 -2.85299e-015   XYZ
    dof rx rz
    limits (-45.0 45.0)
           (-45.0 45.0)
  end
:hierarchy
  begin
    root lhipjoint rhipjoint lowerback
    lhipjoint lfemur
    lfemur ltibia
    ltibia lfoot
    lfoot ltoes
    rhipjoint rfemur
    rfemur rtibia
    rtibia rfoot
    rfoot rtoes
    lowerback upperback
    upperback thorax
    thorax lowerneck lclavicle rclavicle
    lowerneck upperneck
    upperneck head
    lclavicle lhumerus
    lhumerus lradius
    lradius lwrist
    lwrist lhand lthumb
    lhand lfingers
    rclavicle rhumerus
    rhumerus rradius
    rradius rwrist
    rwrist rhand rthumb
    rhand rfingers
  end

#!OML:ASF E:\id_vita\Project 1\Capture day 1\Session 1\Female.ASF
:FULLY-SPECIFIED
:DEGREES
86
root -29.4527 16.0696 3.1393 0.94944 85.857 -15.3897
lowerback -5.0526 1.42225 -2.94841
upperback -2.68539 2.07108 0.669529
thorax -0.0602469 1.0938 2.44003
lowerneck -2.75465 2.17041 -0.98747
upperneck 4.22784 2.92056 0.685109
head 1.753 1.45966 0.447766
rclavicle 7.92964e-015 7.8023e-015
rhumerus -25.8929 -20.0213 -86.2822
rradius 17.2338
rwrist 26.6445
rhand -19.7265 13.3127
rfingers 7.12502
rthumb 6.60383 -16.5643
lclavicle 7.92964e-015 7.8023e-015
lhumerus -43.4735 48.2659 59.3904
lradius 13.7622
lwrist -59.4463
lhand -7.93307 22.4778
lfingers 7.12502
lthumb 17.9732 51.6673
rfemur -26.6619 -1.27423 29.9077
rtibia 29.7019
rfoot -13.0531 -22.9309
rtoes 4.62766
lfemur -51.1552 -1.09522 -12.126
ltibia 58.3094
lfoot -7.00757 5.10925
ltoes 0.384619
87
root -29.4489 16.0655 3.14416 0.066552 85.8701 -16.5475
lowerback -4.79333 1.45262 -2.99445
upperback -2.65947 2.10406 0.674555
thorax -0.18204 1.11167 2.46458
lowerneck -2.93755 2.18499 -1.12321
upperneck 4.10732 2.93726 0.896646
head 1.74165 1.47039 0.538405
rclavicle -4.40432e-015 1.67849e-014
rhumerus -25.6168 -19.506 -86.6336
rradius 17.2874
rwrist 26.6457
rhand -20.2495 12.815
rfingers 7.12502
rthumb 6.09894 -17.0772
lclavicle -4.40432e-015 1.67849e-014
lhumerus -43.0453 48.5329 59.624
lradius 13.7884
lwrist -59.0712
lhand -7.44042 22.7718
lfingers 7.12502
lthumb 18.4472 51.9171
rfemur -26.9264 -1.22108 30.0215
rtibia 29.6503
rfoot -12.8902 -22.9378
rtoes 3.90306
lfemur -51.4948 -1.07512 -11.9889
ltibia 56.8264
lfoot -7.12045 4.54029
ltoes 0.0758417
88
root -29.4438 16.0585 3.14875 -1.65441 85.7512 -18.5293
lowerback -4.54596 1.49372 -2.96724
upperback -2.60572 2.14839 0.741651
thorax -0.269056 1.13376 2.51306
lowerneck -3.07586 2.20155 -1.26128
upperneck 3.84298 2.96605 0.889957
head 1.67887 1.48247 0.559204
rclavicle -1.6614e-014 -1.99406e-014
rhumerus -25.366 -19.4418 -86.6487
rradius 17.1751
rwrist 27.144
rhand -21.0286 13.3655
rfingers 7.12502
rthumb 5.34671 -16.5471
lclavicle -1.6614e-014 -1.99406e-014
lhumerus -43.1154 49.2547 59.3646
lradius 13.5154
lwrist -60.7695
lhand -8.22237 23.0837
lfingers 7.12502
lthumb 17.6949 52.2985
rfemur -27.1669 -1.21704 30.2471
rtibia 29.6227
rfoot -12.9598 -22.949
rtoes 3.50026
lfemur -51.7554 -0.937675 -11.775
ltibia 55.2662
lfoot -7.78347 3.79881
ltoes -2.096
89
root -29.4358 16.0582 3.15149 -0.831192 85.7226 -17.9903
lowerback -4.39149 1.4278 -3.04446
upperback -2.5639 2.05717 0.715465
thorax -0.30807 1.08794 2.52196
lowerneck -2.88308 2.21989 -1.15576
upperneck 3.29962 2.98917 0.711986
head 1.47435 1.4922 0.477103
rclavicle 2.10898e-015 -1.75583e-014
rhumerus -25.095 -18.9253 -86.9921
rradius 17.1212
rwrist 27.1523
rhand -21.6009 13.8731
rfingers 7.12502
rthumb 4.79415 -16.0527
lclavicle 2.10898e-015 -1.75583e-014
lhumerus -43.5311 50.4653 58.3927
lradius 13.467
lwrist -61.2682
lhand -7.75089 22.3011
lfingers 7.12502
lthumb 18.1485 51.4744
rfemur -27.4374 -1.24428 30.2426
rtibia 29.5965
rfoot -13.0546 -22.9907
rtoes 3.4823
lfemur -52.0011 -0.921334 -11.7693
ltibia 53.6032
lfoot -8.02575 3.10939
ltoes -4.51492
90
root -29.4282 16.0619 3.15388 0.754001 85.7551 -16.6759
lowerback -4.21081 1.38403 -3.16899
upperback -2.51726 1.99589 0.629756
thorax -0.358186 1.0572 2.49681
lowerneck -2.74936 2.22938 -1.0445
upperneck 2.90681 2.99563 0.69467
head 1.32774 1.49685 0.446705
rclavicle -2.89294e-014 -4.4975e-015
rhumerus -24.7717 -18.1068 -87.5706
rradius 17.2075
rwrist 26.5593
rhand -21.7818 13.838
rfingers 7.12502
rthumb 4.61949 -16.0917
lclavicle -2.89294e-014 -4.4975e-015
lhumerus -42.6169 50.1157 59.2773
lradius 13.595
lwrist -60.3344
lhand -7.36131 22.4995
lfingers 7.12502
lthumb 18.5233 51.6375
rfemur -27.6945 -1.35355 30.1633
rtibia 29.5294
rfoot -12.9979 -22.686
rtoes 3.48055
lfemur -52.2154 -1.02491 -11.7956
ltibia 51.8526
lfoot -7.80897 2.53879
ltoes -6.6063
91
root -29.4209 16.0674 3.15739 0.636274 85.6286 -17.0655
lowerback -4.00279 1.46563 -3.20497
upperback -2.41961 2.09707 0.595955
thorax -0.380669 1.10561 2.48083
lowerneck -2.83064 2.28403 -1.18902
upperneck 2.53562 3.06829 0.910704
head 1.21859 1.53586 0.535734
rclavicle -2.18539e-014 6.01324e-015
rhumerus -24.2941 -18.0014 -87.8039
rradius 17.0492
rwrist 26.7409
rhand -22.2907 14.0083
rfingers 7.12502
rthumb 4.12803 -15.9315
lclavicle -2.18539e-014 6.01324e-015
lhumerus -41.9522 50.1407 59.8901
lradius 13.5547
lwrist -60.6821
lhand -7.72331 22.6404
lfingers 7.12502
lthumb 18.1751 51.8112
rfemur -27.9041 -1.40178 30.2499
rtibia 29.4085
rfoot -12.9036 -22.2355
rtoes 3.00819
lfemur -52.3578 -1.09801 -11.5586
ltibia 50.0303
lfoot -7.67285 2.2429
ltoes -6.91272
92
root -29.4124 16.0729 3.15909 0.496602 85.4851 -17.531
lowerback -3.79816 1.50521 -3.25385
upperback -2.39408 2.14335 0.574251
thorax -0.472781 1.12972 2.48117
lowerneck -2.5821 2.43285 -1.31143
upperneck 1.84046 3.26487 1.14503
head 0.950217 1.63721 0.618647
rclavicle 2.62768e-015 4.96962e-016
rhumerus -23.9877 -17.9368 -87.9539
rradius 16.84
rwrist 27.5767
rhand -23.3766 14.6321
rfingers 7.12502
rthumb 3.07942 -15.3254
lclavicle 2.62768e-015 4.96962e-016
lhumerus -42.4001 51.3656 59.0062
lradius 13.3129
lwrist -62.5476
lhand -8.37987 22.6036
lfingers 7.12502
lthumb 17.5433 51.8321
rfemur -28.1517 -1.41966 30.3473
rtibia 29.2631
rfoot -12.8938 -22.215
rtoes 1.73673
lfemur -52.5083 -1.23494 -11.2376
ltibia 48.1536
lfoot -7.49193 2.10061
ltoes -6.71424
93
root -29.4055 16.0778 3.15989 0.0837865 85.3569 -18.2643
lowerback -3.51761 1.54924 -3.21342
upperback -2.39986 2.19009 0.512577
thorax -0.634413 1.15448 2.38705
lowerneck -2.45812 2.46493 -1.32776
upperneck 1.31194 3.30617 1.37075
head 0.760719 1.66111 0.682479
rclavicle -3.59055e-015 -1.10822e-014
rhumerus -23.7002 -17.9704 -88.1379
rradius 16.8683
rwrist 27.6271
rhand -23.4076 15.1362
rfingers 7.12502
rthumb 3.04945 -14.8218
lclavicle -3.59055e-015 -1.10822e-014
lhumerus -42.2788 52.0088 58.7726
lradius 13.1767
lwrist -63.4071
lhand -8.61506 23.0033
lfingers 7.12502
lthumb 17.317 52.2518
rfemur -28.4076 -1.39037 30.4533
rtibia 29.1315
rfoot -12.9278 -22.2546
rtoes 1.07558
lfemur -52.6757 -1.391 -10.8896
ltibia 46.2539
lfoot -7.12205 1.75647
ltoes -6.6781
94
root -29.4026 16.0826 3.16186 -0.126092 85.1796 -18.8715
lowerback -3.29333 1.60976 -3.14462
upperback -2.38152 2.2601 0.422412
thorax -0.738827 1.18878 2.25036
lowerneck -2.77831 2.42995 -1.31128
upperneck 1.23912 3.26091 1.54407
head 0.790617 1.64207 0.737232
rclavicle -2.26615e-014 -3.37934e-015
rhumerus -23.3496 -17.0742 -88.7886
rradius 16.9672
rwrist 27.6487
rhand -24.6555 14.5459
rfingers 7.12502
rthumb 1.84428 -15.4258
lclavicle -2.26615e-014 -3.37934e-015
lhumerus -42.09 52.7949 58.4608
lradius 13.0538
lwrist -63.9655
lhand -8.72238 22.784
lfingers 7.12502
lthumb 17.2137 52.0416
rfemur -28.7622 -1.25904 30.5537
rtibia 29.0118
rfoot -12.8859 -21.7554
rtoes 2.24465
lfemur -52.9216 -1.52513 -10.4848
ltibia 44.3194
lfoot -6.6033 1.26941
ltoes -6.139
95
root -29.4064 16.0836 3.1654 -0.182376 85.0823 -19.6019
lowerback -3.32081 1.59533 -3.22447
upperback -2.41879 2.24432 0.433099
thorax -0.764529 1.18336 2.30585
lowerneck -3.03725 2.42993 -1.30331
upperneck 1.09103 3.26573 1.53052
head 0.788611 1.64564 0.734403
rclavicle -1.06101e-014 7.25564e-015
rhumerus -22.8671 -16.9953 -89.0272
rradius 16.7956
rwrist 28.3105
rhand -25.37 14.4842
rfingers 7.12502
rthumb 1.1542 -15.4925
lclavicle -1.06101e-014 7.25564e-015
lhumerus -41.9577 53.7527 58.2641
lradius 12.8852
lwrist -64.7752
lhand -9.07619 22.8406
lfingers 7.12502
lthumb 16.8731 52.1276
rfemur -29.4715 -1.1438 30.6863
rtibia 28.9154
rfoot -12.7477 -21.2543
rtoes 3.18503
lfemur -53.4675 -1.71348 -9.97024
ltibia 42.346
lfoot -5.74121 0.713077
ltoes -6.14772
96
root -29.4004 16.0847 3.16675 -0.733831 85.0161 -20.5736
lowerback -3.22949 1.6139 -3.34164
upperback -2.32407 2.26812 0.53082
thorax -0.728678 1.19464 2.47116
lowerneck -3.14405 2.41216 -1.35717
upperneck 0.636673 3.25254 1.41984
head 0.666685 1.63885 0.705121
rclavicle -1.54555e-014 2.00773e-014
rhumerus -22.2354 -17.5422 -88.8578
rradius 16.4527
rwrist 29.0786
rhand -25.6184 15.4911
rfingers 7.12502
rthumb 0.914286 -14.4867
lclavicle -1.54555e-014 2.00773e-014
lhumerus -41.0859 54.0776 59.2211
lradius 12.7832
lwrist -65.0725
lhand -9.37095 23.4976
lfingers 7.12502
lthumb 16.5893 52.8086
rfemur -29.8859 -1.19987 30.8531
rtibia 28.8393
rfoot -12.6752 -21.1841
rtoes 2.27738
lfemur -53.6599 -2.12091 -9.34381
ltibia 40.3196
lfoot -4.72085 0.336099
ltoes -7.18446
97
root -29.392 16.0884 3.16818 -0.865359 85.038 -21.0956
lowerback -3.09305 1.61734 -3.39193
upperback -2.24057 2.26805 0.552324
thorax -0.722077 1.19309 2.51851
lowerneck -3.20664 2.39908 -1.44705
upperneck 0.0915569 3.24684 1.41692
head 0.507759 1.63774 0.713425
rclavicle -5.49143e-015 -3.57812e-015
rhumerus -21.6517 -16.6718 -89.2546
rradius 16.4756
rwrist 28.806
rhand -26.027 15.2738
rfingers 7.12502
rthumb 0.519682 -14.7053
lclavicle -5.49143e-015 -3.57812e-015
lhumerus -42.271 56.1942 57.4454
lradius 12.5319
lwrist -67.6361
lhand -9.66252 22.7845
lfingers 7.12502
lthumb 16.3086 52.1187
rfemur -30.2767 -1.30565 30.9617
rtibia 28.8081
rfoot -12.6282 -21.2567
rtoes 1.54668
lfemur -53.8344 -2.68137 -8.71004
ltibia 38.2617
lfoot -3.43672 -0.147616
ltoes -9.20171
98
root -29.3862 16.0982 3.17001 0.135975 84.9814 -20.4771
lowerback -2.87344 1.63229 -3.45642
upperback -2.23295 2.2802 0.479189
thorax -0.837489 1.2008 2.47234
lowerneck -3.21164 2.39989 -1.49953
upperneck -0.331738 3.25608 1.50772
head 0.376335 1.6448 0.745252
rclavicle 2.17172e-014 -9.93923e-015
rhumerus -21.2425 -16.3907 -89.519
rradius 16.4286
rwrist 29.0518
rhand -26.4896 15.6965
rfingers 7.12502
rthumb 0.0728682 -14.2832
lclavicle 2.17172e-014 -9.93923e-015
lhumerus -41.7336 56.7434 57.777
lradius 12.516
lwrist -67.5399
lhand -9.26286 23.0379
lfingers 7.12502
lthumb 16.6934 52.3401
rfemur -30.6278 -1.46486 30.992
rtibia 28.6887
rfoot -12.6685 -20.9602
rtoes 1.80325
lfemur -53.9508 -3.20474 -8.11147
ltibia 36.2207
lfoot -1.79005 -0.78434
ltoes -9.71317
99
root -29.3824 16.0954 3.16816 0.925004 84.8952 -20.0561
lowerback -2.65178 1.69322 -3.5818
upperback -2.17232 2.35431 0.438439
thorax -0.907888 1.23861 2.49525
lowerneck -3.29798 2.40073 -1.35031
upperneck -0.621635 3.25884 1.38147
head 0.305734 1.64685 0.679722
rclavicle 1.55549e-014 -9.54166e-015
rhumerus -20.7614 -16.6114 -89.5746
rradius 16.3707
rwrist 29.3782
rhand -26.837 16.4732
rfingers 7.12502
rthumb -0.26267 -13.5064
lclavicle 1.55549e-014 -9.54166e-015
lhumerus -42.1678 58.1073 56.9725
lradius 12.215
lwrist -69.7618
lhand -10.2505 23.3406
lfingers 7.12502
lthumb 15.7424 52.7203
rfemur -30.9902 -1.60689 31.0452
rtibia 28.5688
rfoot -12.8151 -20.5386
rtoes 1.80656
lfemur -53.963 -3.69312 -7.47866
ltibia 34.234
lfoot -0.412294 -1.17482
ltoes -10.1655
100
root -29.3782 16.101 3.16641 0.352262 84.8649 -20.9671
lowerback -2.40739 1.78833 -3.69086
upperback -2.04429 2.47263 0.482222
thorax -0.928242 1.29656 2.59651
lowerneck -3.39221 2.35156 -1.17294
upperneck -1.02864 3.19574 1.16093
head 0.203543 1.61593 0.579147
rclavicle -8.64713e-015 -6.36111e-015
rhumerus -20.1294 -18.3178 -89.072
rradius 15.9141
rwrist 30.8218
rhand -26.9795 18.9393
rfingers 7.12502
rthumb -0.400273 -11.0401
lclavicle -8.64713e-015 -6.36111e-015
lhumerus -41.1252 58.4317 57.9925
lradius 12.1627
lwrist -70.5544
lhand -10.556 23.3309
lfingers 7.12502
lthumb 15.4481 52.7336
rfemur -31.2915 -1.79557 31.2289
rtibia 28.4059
rfoot -13.0463 -20.163
rtoes 1.89556
lfemur -54.1832 -4.19006 -6.74303
ltibia 32.3574
lfoot 0.852959 -1.38181
ltoes -9.42508
